<?xml version="1.0" encoding="UTF-8" standalone="no"?>
<!DOCTYPE svg PUBLIC "-//W3C//DTD SVG 1.1//EN"
 "http://www.w3.org/Graphics/SVG/1.1/DTD/svg11.dtd">
<!-- Generated by graphviz version 2.40.1 (20161225.0304)
 -->
<!-- Title: dependencies Pages: 1 -->
<svg width="4234pt" height="374pt"
 viewBox="0.00 0.00 4234.00 374.00" xmlns="http://www.w3.org/2000/svg" xmlns:xlink="http://www.w3.org/1999/xlink">
<g id="graph0" class="graph" transform="scale(1 1) rotate(0) translate(4 370)">
<title>dependencies</title>
<polygon fill="#ffffff" stroke="transparent" points="-4,4 -4,-370 4230,-370 4230,4 -4,4"/>
<text text-anchor="start" x="2092.0091" y="-42.4" font-family="sans-serif" font-weight="bold" font-size="14.00" fill="#000000">Legend</text>
<polygon fill="#ffffb3" stroke="transparent" points="1879,-10 1879,-30 1899,-30 1899,-10 1879,-10"/>
<text text-anchor="start" x="1902.629" y="-15.4" font-family="sans-serif" font-size="14.00" fill="#000000"> &#160;Declarations</text>
<polygon fill="#8dd3c7" stroke="transparent" points="1992,-10 1992,-30 2012,-30 2012,-10 1992,-10"/>
<text text-anchor="start" x="2015.7251" y="-15.4" font-family="sans-serif" font-size="14.00" fill="#000000"> &#160;Module</text>
<polygon fill="#80b1d3" stroke="transparent" points="2078,-10 2078,-30 2098,-30 2098,-10 2078,-10"/>
<text text-anchor="start" x="2101.7812" y="-15.4" font-family="sans-serif" font-size="14.00" fill="#000000"> &#160;Bootstrap</text>
<polygon fill="#fdb462" stroke="transparent" points="2175,-10 2175,-30 2195,-30 2195,-10 2175,-10"/>
<text text-anchor="start" x="2198.6732" y="-15.4" font-family="sans-serif" font-size="14.00" fill="#000000"> &#160;Providers</text>
<polygon fill="#fb8072" stroke="transparent" points="2271,-10 2271,-30 2291,-30 2291,-10 2271,-10"/>
<text text-anchor="start" x="2294.7258" y="-15.4" font-family="sans-serif" font-size="14.00" fill="#000000"> &#160;Exports</text>
<g id="clust1" class="cluster">
<title>cluster_AppModule</title>
<polygon fill="none" stroke="#000000" stroke-dasharray="1,5" points="177,-146 177,-358 813,-358 813,-146 177,-146"/>
</g>
<g id="clust2" class="cluster">
<title>cluster_AppModule_declarations</title>
<polygon fill="none" stroke="#000000" points="185,-154 185,-206 307,-206 307,-154 185,-154"/>
</g>
<g id="clust4" class="cluster">
<title>cluster_AppModule_imports</title>
<polygon fill="none" stroke="#000000" points="315,-154 315,-206 805,-206 805,-154 315,-154"/>
</g>
<g id="clust6" class="cluster">
<title>cluster_AppModule_bootstrap</title>
<polygon fill="none" stroke="#000000" points="443,-298 443,-350 567,-350 567,-298 443,-298"/>
</g>
<g id="clust14" class="cluster">
<title>cluster_ClientsModule</title>
<polygon fill="none" stroke="#000000" stroke-dasharray="1,5" points="2420,-146 2420,-274 3062,-274 3062,-146 2420,-146"/>
</g>
<g id="clust15" class="cluster">
<title>cluster_ClientsModule_declarations</title>
<polygon fill="none" stroke="#000000" points="2596,-154 2596,-206 3054,-206 3054,-154 2596,-154"/>
</g>
<g id="clust19" class="cluster">
<title>cluster_ClientsModule_imports</title>
<polygon fill="none" stroke="#000000" points="2428,-154 2428,-206 2588,-206 2588,-154 2428,-154"/>
</g>
<g id="clust29" class="cluster">
<title>cluster_LoginModule</title>
<polygon fill="none" stroke="#000000" stroke-dasharray="1,5" points="821,-214 821,-282 1165,-282 1165,-214 821,-214"/>
</g>
<g id="clust30" class="cluster">
<title>cluster_LoginModule_declarations</title>
<polygon fill="none" stroke="#000000" points="999,-222 999,-274 1157,-274 1157,-222 999,-222"/>
</g>
<g id="clust33" class="cluster">
<title>cluster_LoginModule_exports</title>
<polygon fill="none" stroke="#000000" points="829,-222 829,-274 991,-274 991,-222 829,-222"/>
</g>
<g id="clust36" class="cluster">
<title>cluster_PageNotFoundModule</title>
<polygon fill="none" stroke="#000000" stroke-dasharray="1,5" points="3808,-70 3808,-206 4218,-206 4218,-70 3808,-70"/>
</g>
<g id="clust37" class="cluster">
<title>cluster_PageNotFoundModule_declarations</title>
<polygon fill="none" stroke="#000000" points="4028,-78 4028,-130 4210,-130 4210,-78 4028,-78"/>
</g>
<g id="clust39" class="cluster">
<title>cluster_PageNotFoundModule_imports</title>
<polygon fill="none" stroke="#000000" points="3816,-78 3816,-130 4020,-130 4020,-78 3816,-78"/>
</g>
<g id="clust49" class="cluster">
<title>cluster_PrestationsModule</title>
<polygon fill="none" stroke="#000000" stroke-dasharray="1,5" points="3070,-146 3070,-274 3800,-274 3800,-146 3070,-146"/>
</g>
<g id="clust50" class="cluster">
<title>cluster_PrestationsModule_declarations</title>
<polygon fill="none" stroke="#000000" points="3268,-154 3268,-206 3792,-206 3792,-154 3268,-154"/>
</g>
<g id="clust54" class="cluster">
<title>cluster_PrestationsModule_imports</title>
<polygon fill="none" stroke="#000000" points="3078,-154 3078,-206 3260,-206 3260,-154 3078,-154"/>
</g>
<g id="clust64" class="cluster">
<title>cluster_SharedModule</title>
<polygon fill="none" stroke="#000000" stroke-dasharray="1,5" points="1173,-214 1173,-282 2412,-282 2412,-214 1173,-214"/>
</g>
<g id="clust65" class="cluster">
<title>cluster_SharedModule_declarations</title>
<polygon fill="none" stroke="#000000" points="1945,-222 1945,-274 2404,-274 2404,-222 1945,-222"/>
</g>
<g id="clust70" class="cluster">
<title>cluster_SharedModule_imports</title>
<polygon fill="none" stroke="#000000" points="1803,-222 1803,-274 1937,-274 1937,-222 1803,-222"/>
</g>
<g id="clust71" class="cluster">
<title>cluster_SharedModule_exports</title>
<polygon fill="none" stroke="#000000" points="1181,-222 1181,-274 1795,-274 1795,-222 1181,-222"/>
</g>
<g id="clust74" class="cluster">
<title>cluster_TemplatesModule</title>
<polygon fill="none" stroke="#000000" stroke-dasharray="1,5" points="1530,-290 1530,-358 2205,-358 2205,-290 1530,-290"/>
</g>
<g id="clust75" class="cluster">
<title>cluster_TemplatesModule_declarations</title>
<polygon fill="none" stroke="#000000" points="1875,-298 1875,-350 2197,-350 2197,-298 1875,-298"/>
</g>
<g id="clust79" class="cluster">
<title>cluster_TemplatesModule_exports</title>
<polygon fill="none" stroke="#000000" points="1538,-298 1538,-350 1867,-350 1867,-298 1538,-298"/>
</g>
<g id="clust82" class="cluster">
<title>cluster_UiTotoModule</title>
<polygon fill="none" stroke="#000000" stroke-dasharray="1,5" points="8,-70 8,-138 710,-138 710,-70 8,-70"/>
</g>
<g id="clust83" class="cluster">
<title>cluster_UiTotoModule_declarations</title>
<polygon fill="none" stroke="#000000" points="166,-78 166,-130 702,-130 702,-78 166,-78"/>
</g>
<g id="clust89" class="cluster">
<title>cluster_UiTotoModule_exports</title>
<polygon fill="none" stroke="#000000" points="16,-78 16,-130 158,-130 158,-78 16,-78"/>
</g>
<!-- AppComponent -->
<g id="node1" class="node">
<title>AppComponent</title>
<polygon fill="#ffffb3" stroke="#000000" points="298.9399,-198 193.0601,-198 193.0601,-162 298.9399,-162 298.9399,-198"/>
<text text-anchor="middle" x="246" y="-175.8" font-family="Times,serif" font-size="14.00" fill="#000000">AppComponent</text>
</g>
<!-- AppModule -->
<g id="node2" class="node">
<title>AppModule</title>
<polygon fill="#8dd3c7" stroke="#000000" points="546.6571,-266 543.6571,-270 522.6571,-270 519.6571,-266 463.3429,-266 463.3429,-230 546.6571,-230 546.6571,-266"/>
<text text-anchor="middle" x="505" y="-243.8" font-family="Times,serif" font-size="14.00" fill="#000000">AppModule</text>
</g>
<!-- AppComponent&#45;&gt;AppModule -->
<g id="edge1" class="edge">
<title>AppComponent&#45;&gt;AppModule</title>
<path fill="none" stroke="#000000" d="M246,-198.2921C246,-220.2057 246,-254 246,-254 246,-254 453.0993,-254 453.0993,-254"/>
<polygon fill="#000000" stroke="#000000" points="453.0994,-257.5001 463.0993,-254 453.0993,-250.5001 453.0994,-257.5001"/>
</g>
<!-- AppComponent  -->
<g id="node7" class="node">
<title>AppComponent </title>
<polygon fill="#80b1d3" stroke="#000000" points="559.439,-342 450.561,-342 450.561,-306 559.439,-306 559.439,-342"/>
<text text-anchor="middle" x="505" y="-319.8" font-family="Times,serif" font-size="14.00" fill="#000000">AppComponent </text>
</g>
<!-- AppModule&#45;&gt;AppComponent  -->
<g id="edge6" class="edge">
<title>AppModule&#45;&gt;AppComponent </title>
<path fill="none" stroke="#000000" stroke-dasharray="1,5" d="M505,-266.0109C505,-266.0109 505,-295.855 505,-295.855"/>
<polygon fill="#000000" stroke="#000000" points="501.5001,-295.8549 505,-305.855 508.5001,-295.855 501.5001,-295.8549"/>
</g>
<!-- AppRoutingModule -->
<g id="node3" class="node">
<title>AppRoutingModule</title>
<polygon fill="#8dd3c7" stroke="#000000" points="569.2744,-198 566.2744,-202 545.2744,-202 542.2744,-198 440.7256,-198 440.7256,-162 569.2744,-162 569.2744,-198"/>
<text text-anchor="middle" x="505" y="-175.8" font-family="Times,serif" font-size="14.00" fill="#000000">AppRoutingModule</text>
</g>
<!-- AppRoutingModule&#45;&gt;AppModule -->
<g id="edge2" class="edge">
<title>AppRoutingModule&#45;&gt;AppModule</title>
<path fill="none" stroke="#000000" d="M505,-198.2228C505,-198.2228 505,-219.7269 505,-219.7269"/>
<polygon fill="#000000" stroke="#000000" points="501.5001,-219.7269 505,-229.7269 508.5001,-219.727 501.5001,-219.7269"/>
</g>
<!-- LoginModule -->
<g id="node4" class="node">
<title>LoginModule</title>
<polygon fill="#8dd3c7" stroke="#000000" points="680.493,-198 677.493,-202 656.493,-202 653.493,-198 587.507,-198 587.507,-162 680.493,-162 680.493,-198"/>
<text text-anchor="middle" x="634" y="-175.8" font-family="Times,serif" font-size="14.00" fill="#000000">LoginModule</text>
</g>
<!-- LoginModule&#45;&gt;AppModule -->
<g id="edge3" class="edge">
<title>LoginModule&#45;&gt;AppModule</title>
<path fill="none" stroke="#000000" d="M634,-198.2228C634,-218.3652 634,-248 634,-248 634,-248 556.8826,-248 556.8826,-248"/>
<polygon fill="#000000" stroke="#000000" points="556.8826,-244.5001 546.8826,-248 556.8826,-251.5001 556.8826,-244.5001"/>
</g>
<!-- PageLoginComponent  -->
<g id="node14" class="node">
<title>PageLoginComponent </title>
<polygon fill="#fb8072" stroke="#000000" points="982.9882,-266 837.0118,-266 837.0118,-230 982.9882,-230 982.9882,-266"/>
<text text-anchor="middle" x="910" y="-243.8" font-family="Times,serif" font-size="14.00" fill="#000000">PageLoginComponent </text>
</g>
<!-- LoginModule&#45;&gt;PageLoginComponent  -->
<g id="edge13" class="edge">
<title>LoginModule&#45;&gt;PageLoginComponent </title>
<path fill="none" stroke="#000000" stroke-dasharray="5,2" d="M657.2483,-198.0225C657.2483,-215.3734 657.2483,-239 657.2483,-239 657.2483,-239 827.2328,-239 827.2328,-239"/>
<polygon fill="#000000" stroke="#000000" points="827.2329,-242.5001 837.2328,-239 827.2328,-235.5001 827.2329,-242.5001"/>
</g>
<!-- SharedModule -->
<g id="node5" class="node">
<title>SharedModule</title>
<polygon fill="#8dd3c7" stroke="#000000" points="797.4231,-198 794.4231,-202 773.4231,-202 770.4231,-198 698.5769,-198 698.5769,-162 797.4231,-162 797.4231,-198"/>
<text text-anchor="middle" x="748" y="-175.8" font-family="Times,serif" font-size="14.00" fill="#000000">SharedModule</text>
</g>
<!-- SharedModule&#45;&gt;AppModule -->
<g id="edge4" class="edge">
<title>SharedModule&#45;&gt;AppModule</title>
<path fill="none" stroke="#000000" d="M764.4037,-198.2479C764.4037,-221.0179 764.4037,-257 764.4037,-257 764.4037,-257 556.6777,-257 556.6777,-257"/>
<polygon fill="#000000" stroke="#000000" points="556.6777,-253.5001 546.6777,-257 556.6777,-260.5001 556.6777,-253.5001"/>
</g>
<!-- ClientsModule -->
<g id="node11" class="node">
<title>ClientsModule</title>
<polygon fill="#8dd3c7" stroke="#000000" points="2724.7176,-266 2721.7176,-270 2700.7176,-270 2697.7176,-266 2625.2824,-266 2625.2824,-230 2724.7176,-230 2724.7176,-266"/>
<text text-anchor="middle" x="2675" y="-243.8" font-family="Times,serif" font-size="14.00" fill="#000000">ClientsModule</text>
</g>
<!-- SharedModule&#45;&gt;ClientsModule -->
<g id="edge11" class="edge">
<title>SharedModule&#45;&gt;ClientsModule</title>
<path fill="none" stroke="#000000" d="M797.4681,-165C1073.9989,-165 2416.0253,-165 2416.0253,-165 2416.0253,-165 2416.0253,-254 2416.0253,-254 2416.0253,-254 2615.3735,-254 2615.3735,-254"/>
<polygon fill="#000000" stroke="#000000" points="2615.3735,-257.5001 2625.3735,-254 2615.3734,-250.5001 2615.3735,-257.5001"/>
</g>
<!-- PrestationsModule -->
<g id="node21" class="node">
<title>PrestationsModule</title>
<polygon fill="#8dd3c7" stroke="#000000" points="3421.4832,-266 3418.4832,-270 3397.4832,-270 3394.4832,-266 3300.5168,-266 3300.5168,-230 3421.4832,-230 3421.4832,-266"/>
<text text-anchor="middle" x="3361" y="-243.8" font-family="Times,serif" font-size="14.00" fill="#000000">PrestationsModule</text>
</g>
<!-- SharedModule&#45;&gt;PrestationsModule -->
<g id="edge20" class="edge">
<title>SharedModule&#45;&gt;PrestationsModule</title>
<path fill="none" stroke="#000000" d="M731.5963,-198.2015C731.5963,-204.028 731.5963,-209 731.5963,-209 731.5963,-209 3340.8361,-209 3340.8361,-209 3340.8361,-209 3340.8361,-219.8701 3340.8361,-219.8701"/>
<polygon fill="#000000" stroke="#000000" points="3337.3362,-219.8701 3340.8361,-229.8701 3344.3362,-219.8701 3337.3362,-219.8701"/>
</g>
<!-- StateDirective  -->
<g id="node28" class="node">
<title>StateDirective </title>
<polygon fill="#fb8072" stroke="#000000" points="1786.5767,-266 1687.4233,-266 1687.4233,-230 1786.5767,-230 1786.5767,-266"/>
<text text-anchor="middle" x="1737" y="-243.8" font-family="Times,serif" font-size="14.00" fill="#000000">StateDirective </text>
</g>
<!-- SharedModule&#45;&gt;StateDirective  -->
<g id="edge26" class="edge">
<title>SharedModule&#45;&gt;StateDirective </title>
<path fill="none" stroke="#000000" stroke-dasharray="5,2" d="M797.383,-183C997.4398,-183 1737,-183 1737,-183 1737,-183 1737,-219.8939 1737,-219.8939"/>
<polygon fill="#000000" stroke="#000000" points="1733.5001,-219.8938 1737,-229.8939 1740.5001,-219.8939 1733.5001,-219.8938"/>
</g>
<!-- TableauComponent  -->
<g id="node29" class="node">
<title>TableauComponent </title>
<polygon fill="#fb8072" stroke="#000000" points="1668.9194,-266 1539.0806,-266 1539.0806,-230 1668.9194,-230 1668.9194,-266"/>
<text text-anchor="middle" x="1604" y="-243.8" font-family="Times,serif" font-size="14.00" fill="#000000">TableauComponent </text>
</g>
<!-- SharedModule&#45;&gt;TableauComponent  -->
<g id="edge27" class="edge">
<title>SharedModule&#45;&gt;TableauComponent </title>
<path fill="none" stroke="#000000" stroke-dasharray="5,2" d="M797.409,-186C979.6998,-186 1604,-186 1604,-186 1604,-186 1604,-219.7333 1604,-219.7333"/>
<polygon fill="#000000" stroke="#000000" points="1600.5001,-219.7333 1604,-229.7333 1607.5001,-219.7333 1600.5001,-219.7333"/>
</g>
<!-- TemplatesModule  -->
<g id="node30" class="node">
<title>TemplatesModule </title>
<polygon fill="#fb8072" stroke="#000000" points="1520.8631,-266 1399.1369,-266 1399.1369,-230 1520.8631,-230 1520.8631,-266"/>
<text text-anchor="middle" x="1460" y="-243.8" font-family="Times,serif" font-size="14.00" fill="#000000">TemplatesModule </text>
</g>
<!-- SharedModule&#45;&gt;TemplatesModule  -->
<g id="edge28" class="edge">
<title>SharedModule&#45;&gt;TemplatesModule </title>
<path fill="none" stroke="#000000" stroke-dasharray="5,2" d="M797.2196,-189C958.3835,-189 1460,-189 1460,-189 1460,-189 1460,-219.9775 1460,-219.9775"/>
<polygon fill="#000000" stroke="#000000" points="1456.5001,-219.9774 1460,-229.9775 1463.5001,-219.9775 1456.5001,-219.9774"/>
</g>
<!-- TotalPipe  -->
<g id="node31" class="node">
<title>TotalPipe </title>
<polygon fill="#fb8072" stroke="#000000" points="1380.9362,-266 1307.0638,-266 1307.0638,-230 1380.9362,-230 1380.9362,-266"/>
<text text-anchor="middle" x="1344" y="-243.8" font-family="Times,serif" font-size="14.00" fill="#000000">TotalPipe </text>
</g>
<!-- SharedModule&#45;&gt;TotalPipe  -->
<g id="edge29" class="edge">
<title>SharedModule&#45;&gt;TotalPipe </title>
<path fill="none" stroke="#000000" stroke-dasharray="5,2" d="M797.2802,-192C940.0743,-192 1344,-192 1344,-192 1344,-192 1344,-219.973 1344,-219.973"/>
<polygon fill="#000000" stroke="#000000" points="1340.5001,-219.973 1344,-229.973 1347.5001,-219.973 1340.5001,-219.973"/>
</g>
<!-- TypeDirective  -->
<g id="node32" class="node">
<title>TypeDirective </title>
<polygon fill="#fb8072" stroke="#000000" points="1289.3506,-266 1188.6494,-266 1188.6494,-230 1289.3506,-230 1289.3506,-266"/>
<text text-anchor="middle" x="1239" y="-243.8" font-family="Times,serif" font-size="14.00" fill="#000000">TypeDirective </text>
</g>
<!-- SharedModule&#45;&gt;TypeDirective  -->
<g id="edge30" class="edge">
<title>SharedModule&#45;&gt;TypeDirective </title>
<path fill="none" stroke="#000000" stroke-dasharray="5,2" d="M797.327,-195C921.8379,-195 1239,-195 1239,-195 1239,-195 1239,-219.7604 1239,-219.7604"/>
<polygon fill="#000000" stroke="#000000" points="1235.5001,-219.7604 1239,-229.7604 1242.5001,-219.7604 1235.5001,-219.7604"/>
</g>
<!-- UiTotoModule -->
<g id="node6" class="node">
<title>UiTotoModule</title>
<polygon fill="#8dd3c7" stroke="#000000" points="422.9902,-198 419.9902,-202 398.9902,-202 395.9902,-198 323.0098,-198 323.0098,-162 422.9902,-162 422.9902,-198"/>
<text text-anchor="middle" x="373" y="-175.8" font-family="Times,serif" font-size="14.00" fill="#000000">UiTotoModule</text>
</g>
<!-- UiTotoModule&#45;&gt;AppModule -->
<g id="edge5" class="edge">
<title>UiTotoModule&#45;&gt;AppModule</title>
<path fill="none" stroke="#000000" d="M373,-198.2667C373,-216.5552 373,-242 373,-242 373,-242 453.2344,-242 453.2344,-242"/>
<polygon fill="#000000" stroke="#000000" points="453.2344,-245.5001 463.2344,-242 453.2343,-238.5001 453.2344,-245.5001"/>
</g>
<!-- UiTotoComponent  -->
<g id="node41" class="node">
<title>UiTotoComponent </title>
<polygon fill="#fb8072" stroke="#000000" points="149.7731,-122 24.2269,-122 24.2269,-86 149.7731,-86 149.7731,-122"/>
<text text-anchor="middle" x="87" y="-99.8" font-family="Times,serif" font-size="14.00" fill="#000000">UiTotoComponent </text>
</g>
<!-- UiTotoModule&#45;&gt;UiTotoComponent  -->
<g id="edge39" class="edge">
<title>UiTotoModule&#45;&gt;UiTotoComponent </title>
<path fill="none" stroke="#000000" stroke-dasharray="5,2" d="M348.0025,-161.8495C348.0025,-149.7292 348.0025,-136 348.0025,-136 348.0025,-136 87,-136 87,-136 87,-136 87,-132.2434 87,-132.2434"/>
<polygon fill="#000000" stroke="#000000" points="90.5001,-132.2434 87,-122.2434 83.5001,-132.2434 90.5001,-132.2434"/>
</g>
<!-- ClientComponent -->
<g id="node8" class="node">
<title>ClientComponent</title>
<polygon fill="#ffffb3" stroke="#000000" points="2879.5563,-198 2764.4437,-198 2764.4437,-162 2879.5563,-162 2879.5563,-198"/>
<text text-anchor="middle" x="2822" y="-175.8" font-family="Times,serif" font-size="14.00" fill="#000000">ClientComponent</text>
</g>
<!-- ClientComponent&#45;&gt;ClientsModule -->
<g id="edge7" class="edge">
<title>ClientComponent&#45;&gt;ClientsModule</title>
<path fill="none" stroke="#000000" d="M2822,-198.2228C2822,-218.3652 2822,-248 2822,-248 2822,-248 2734.7675,-248 2734.7675,-248"/>
<polygon fill="#000000" stroke="#000000" points="2734.7675,-244.5001 2724.7675,-248 2734.7675,-251.5001 2734.7675,-244.5001"/>
</g>
<!-- ListClientsComponent -->
<g id="node9" class="node">
<title>ListClientsComponent</title>
<polygon fill="#ffffb3" stroke="#000000" points="2746.2786,-198 2603.7214,-198 2603.7214,-162 2746.2786,-162 2746.2786,-198"/>
<text text-anchor="middle" x="2675" y="-175.8" font-family="Times,serif" font-size="14.00" fill="#000000">ListClientsComponent</text>
</g>
<!-- ListClientsComponent&#45;&gt;ClientsModule -->
<g id="edge8" class="edge">
<title>ListClientsComponent&#45;&gt;ClientsModule</title>
<path fill="none" stroke="#000000" d="M2675,-198.2228C2675,-198.2228 2675,-219.7269 2675,-219.7269"/>
<polygon fill="#000000" stroke="#000000" points="2671.5001,-219.7269 2675,-229.7269 2678.5001,-219.727 2671.5001,-219.7269"/>
</g>
<!-- PageClientsComponent -->
<g id="node10" class="node">
<title>PageClientsComponent</title>
<polygon fill="#ffffb3" stroke="#000000" points="3046.212,-198 2897.788,-198 2897.788,-162 3046.212,-162 3046.212,-198"/>
<text text-anchor="middle" x="2972" y="-175.8" font-family="Times,serif" font-size="14.00" fill="#000000">PageClientsComponent</text>
</g>
<!-- PageClientsComponent&#45;&gt;ClientsModule -->
<g id="edge9" class="edge">
<title>PageClientsComponent&#45;&gt;ClientsModule</title>
<path fill="none" stroke="#000000" d="M2972,-198.2479C2972,-221.0179 2972,-257 2972,-257 2972,-257 2734.7111,-257 2734.7111,-257"/>
<polygon fill="#000000" stroke="#000000" points="2734.7112,-253.5001 2724.7111,-257 2734.7111,-260.5001 2734.7112,-253.5001"/>
</g>
<!-- ClientsRoutingModule -->
<g id="node12" class="node">
<title>ClientsRoutingModule</title>
<polygon fill="#8dd3c7" stroke="#000000" points="2580.3356,-198 2577.3356,-202 2556.3356,-202 2553.3356,-198 2435.6644,-198 2435.6644,-162 2580.3356,-162 2580.3356,-198"/>
<text text-anchor="middle" x="2508" y="-175.8" font-family="Times,serif" font-size="14.00" fill="#000000">ClientsRoutingModule</text>
</g>
<!-- ClientsRoutingModule&#45;&gt;ClientsModule -->
<g id="edge10" class="edge">
<title>ClientsRoutingModule&#45;&gt;ClientsModule</title>
<path fill="none" stroke="#000000" d="M2508,-198.2667C2508,-216.5552 2508,-242 2508,-242 2508,-242 2615.3466,-242 2615.3466,-242"/>
<polygon fill="#000000" stroke="#000000" points="2615.3467,-245.5001 2625.3466,-242 2615.3466,-238.5001 2615.3467,-245.5001"/>
</g>
<!-- PageLoginComponent -->
<g id="node13" class="node">
<title>PageLoginComponent</title>
<polygon fill="#ffffb3" stroke="#000000" points="1148.9874,-266 1007.0126,-266 1007.0126,-230 1148.9874,-230 1148.9874,-266"/>
<text text-anchor="middle" x="1078" y="-243.8" font-family="Times,serif" font-size="14.00" fill="#000000">PageLoginComponent</text>
</g>
<!-- PageLoginComponent&#45;&gt;LoginModule -->
<g id="edge12" class="edge">
<title>PageLoginComponent&#45;&gt;LoginModule</title>
<path fill="none" stroke="#000000" d="M1078,-229.793C1078,-224.4451 1078,-220 1078,-220 1078,-220 610.7518,-220 610.7518,-220 610.7518,-220 610.7518,-208.1274 610.7518,-208.1274"/>
<polygon fill="#000000" stroke="#000000" points="614.2518,-208.1274 610.7518,-198.1274 607.2518,-208.1275 614.2518,-208.1274"/>
</g>
<!-- PageNotFoundComponent -->
<g id="node15" class="node">
<title>PageNotFoundComponent</title>
<polygon fill="#ffffb3" stroke="#000000" points="4201.8243,-122 4036.1757,-122 4036.1757,-86 4201.8243,-86 4201.8243,-122"/>
<text text-anchor="middle" x="4119" y="-99.8" font-family="Times,serif" font-size="14.00" fill="#000000">PageNotFoundComponent</text>
</g>
<!-- PageNotFoundModule -->
<g id="node16" class="node">
<title>PageNotFoundModule</title>
<polygon fill="#8dd3c7" stroke="#000000" points="4089.5421,-198 4086.5421,-202 4065.5421,-202 4062.5421,-198 3946.4579,-198 3946.4579,-162 4089.5421,-162 4089.5421,-198"/>
<text text-anchor="middle" x="4018" y="-175.8" font-family="Times,serif" font-size="14.00" fill="#000000">PageNotFoundModule</text>
</g>
<!-- PageNotFoundComponent&#45;&gt;PageNotFoundModule -->
<g id="edge14" class="edge">
<title>PageNotFoundComponent&#45;&gt;PageNotFoundModule</title>
<path fill="none" stroke="#000000" d="M4063.0544,-122.0109C4063.0544,-122.0109 4063.0544,-151.855 4063.0544,-151.855"/>
<polygon fill="#000000" stroke="#000000" points="4059.5544,-151.8549 4063.0544,-161.855 4066.5544,-151.855 4059.5544,-151.8549"/>
</g>
<!-- PageNotFoundRoutingModule -->
<g id="node17" class="node">
<title>PageNotFoundRoutingModule</title>
<polygon fill="#8dd3c7" stroke="#000000" points="4012.1595,-122 4009.1595,-126 3988.1595,-126 3985.1595,-122 3823.8405,-122 3823.8405,-86 4012.1595,-86 4012.1595,-122"/>
<text text-anchor="middle" x="3918" y="-99.8" font-family="Times,serif" font-size="14.00" fill="#000000">PageNotFoundRoutingModule</text>
</g>
<!-- PageNotFoundRoutingModule&#45;&gt;PageNotFoundModule -->
<g id="edge15" class="edge">
<title>PageNotFoundRoutingModule&#45;&gt;PageNotFoundModule</title>
<path fill="none" stroke="#000000" d="M3979.2795,-122.0109C3979.2795,-122.0109 3979.2795,-151.855 3979.2795,-151.855"/>
<polygon fill="#000000" stroke="#000000" points="3975.7795,-151.8549 3979.2795,-161.855 3982.7795,-151.855 3975.7795,-151.8549"/>
</g>
<!-- ListPrestationsComponent -->
<g id="node18" class="node">
<title>ListPrestationsComponent</title>
<polygon fill="#ffffb3" stroke="#000000" points="3628.0448,-198 3463.9552,-198 3463.9552,-162 3628.0448,-162 3628.0448,-198"/>
<text text-anchor="middle" x="3546" y="-175.8" font-family="Times,serif" font-size="14.00" fill="#000000">ListPrestationsComponent</text>
</g>
<!-- ListPrestationsComponent&#45;&gt;PrestationsModule -->
<g id="edge16" class="edge">
<title>ListPrestationsComponent&#45;&gt;PrestationsModule</title>
<path fill="none" stroke="#000000" d="M3546,-198.2667C3546,-216.5552 3546,-242 3546,-242 3546,-242 3431.5759,-242 3431.5759,-242"/>
<polygon fill="#000000" stroke="#000000" points="3431.576,-238.5001 3421.5759,-242 3431.5759,-245.5001 3431.576,-238.5001"/>
</g>
<!-- PagePrestationsComponent -->
<g id="node19" class="node">
<title>PagePrestationsComponent</title>
<polygon fill="#ffffb3" stroke="#000000" points="3445.9776,-198 3276.0224,-198 3276.0224,-162 3445.9776,-162 3445.9776,-198"/>
<text text-anchor="middle" x="3361" y="-175.8" font-family="Times,serif" font-size="14.00" fill="#000000">PagePrestationsComponent</text>
</g>
<!-- PagePrestationsComponent&#45;&gt;PrestationsModule -->
<g id="edge17" class="edge">
<title>PagePrestationsComponent&#45;&gt;PrestationsModule</title>
<path fill="none" stroke="#000000" d="M3381.1639,-198.2228C3381.1639,-198.2228 3381.1639,-219.7269 3381.1639,-219.7269"/>
<polygon fill="#000000" stroke="#000000" points="3377.664,-219.7269 3381.1639,-229.7269 3384.664,-219.727 3377.664,-219.7269"/>
</g>
<!-- PrestationComponent -->
<g id="node20" class="node">
<title>PrestationComponent</title>
<polygon fill="#ffffb3" stroke="#000000" points="3783.8216,-198 3646.1784,-198 3646.1784,-162 3783.8216,-162 3783.8216,-198"/>
<text text-anchor="middle" x="3715" y="-175.8" font-family="Times,serif" font-size="14.00" fill="#000000">PrestationComponent</text>
</g>
<!-- PrestationComponent&#45;&gt;PrestationsModule -->
<g id="edge18" class="edge">
<title>PrestationComponent&#45;&gt;PrestationsModule</title>
<path fill="none" stroke="#000000" d="M3715,-198.2921C3715,-220.2057 3715,-254 3715,-254 3715,-254 3431.8548,-254 3431.8548,-254"/>
<polygon fill="#000000" stroke="#000000" points="3431.8548,-250.5001 3421.8548,-254 3431.8547,-257.5001 3431.8548,-250.5001"/>
</g>
<!-- PrestationsRoutingModule -->
<g id="node22" class="node">
<title>PrestationsRoutingModule</title>
<polygon fill="#8dd3c7" stroke="#000000" points="3252.101,-198 3249.101,-202 3228.101,-202 3225.101,-198 3085.899,-198 3085.899,-162 3252.101,-162 3252.101,-198"/>
<text text-anchor="middle" x="3169" y="-175.8" font-family="Times,serif" font-size="14.00" fill="#000000">PrestationsRoutingModule</text>
</g>
<!-- PrestationsRoutingModule&#45;&gt;PrestationsModule -->
<g id="edge19" class="edge">
<title>PrestationsRoutingModule&#45;&gt;PrestationsModule</title>
<path fill="none" stroke="#000000" d="M3169,-198.0225C3169,-215.3734 3169,-239 3169,-239 3169,-239 3290.5135,-239 3290.5135,-239"/>
<polygon fill="#000000" stroke="#000000" points="3290.5136,-242.5001 3300.5135,-239 3290.5135,-235.5001 3290.5136,-242.5001"/>
</g>
<!-- StateDirective -->
<g id="node23" class="node">
<title>StateDirective</title>
<polygon fill="#ffffb3" stroke="#000000" points="2193.0758,-266 2096.9242,-266 2096.9242,-230 2193.0758,-230 2193.0758,-266"/>
<text text-anchor="middle" x="2145" y="-243.8" font-family="Times,serif" font-size="14.00" fill="#000000">StateDirective</text>
</g>
<!-- StateDirective&#45;&gt;SharedModule -->
<g id="edge21" class="edge">
<title>StateDirective&#45;&gt;SharedModule</title>
<path fill="none" stroke="#000000" d="M2145,-229.7079C2145,-207.7943 2145,-174 2145,-174 2145,-174 807.3096,-174 807.3096,-174"/>
<polygon fill="#000000" stroke="#000000" points="807.3097,-170.5001 797.3096,-174 807.3096,-177.5001 807.3097,-170.5001"/>
</g>
<!-- TableauComponent -->
<g id="node24" class="node">
<title>TableauComponent</title>
<polygon fill="#ffffb3" stroke="#000000" points="2079.4201,-266 1952.5799,-266 1952.5799,-230 2079.4201,-230 2079.4201,-266"/>
<text text-anchor="middle" x="2016" y="-243.8" font-family="Times,serif" font-size="14.00" fill="#000000">TableauComponent</text>
</g>
<!-- TableauComponent&#45;&gt;SharedModule -->
<g id="edge22" class="edge">
<title>TableauComponent&#45;&gt;SharedModule</title>
<path fill="none" stroke="#000000" d="M2016,-229.7157C2016,-208.6789 2016,-177 2016,-177 2016,-177 807.3179,-177 807.3179,-177"/>
<polygon fill="#000000" stroke="#000000" points="807.318,-173.5001 797.3179,-177 807.3179,-180.5001 807.318,-173.5001"/>
</g>
<!-- TotalPipe -->
<g id="node25" class="node">
<title>TotalPipe</title>
<polygon fill="#ffffb3" stroke="#000000" points="2396.4376,-266 2325.5624,-266 2325.5624,-230 2396.4376,-230 2396.4376,-266"/>
<text text-anchor="middle" x="2361" y="-243.8" font-family="Times,serif" font-size="14.00" fill="#000000">TotalPipe</text>
</g>
<!-- TotalPipe&#45;&gt;SharedModule -->
<g id="edge23" class="edge">
<title>TotalPipe&#45;&gt;SharedModule</title>
<path fill="none" stroke="#000000" d="M2361,-229.8468C2361,-206.2434 2361,-168 2361,-168 2361,-168 807.5977,-168 807.5977,-168"/>
<polygon fill="#000000" stroke="#000000" points="807.5977,-164.5001 797.5977,-168 807.5977,-171.5001 807.5977,-164.5001"/>
</g>
<!-- TypeDirective -->
<g id="node26" class="node">
<title>TypeDirective</title>
<polygon fill="#ffffb3" stroke="#000000" points="2307.3501,-266 2210.6499,-266 2210.6499,-230 2307.3501,-230 2307.3501,-266"/>
<text text-anchor="middle" x="2259" y="-243.8" font-family="Times,serif" font-size="14.00" fill="#000000">TypeDirective</text>
</g>
<!-- TypeDirective&#45;&gt;SharedModule -->
<g id="edge24" class="edge">
<title>TypeDirective&#45;&gt;SharedModule</title>
<path fill="none" stroke="#000000" d="M2259,-229.7521C2259,-206.9821 2259,-171 2259,-171 2259,-171 807.4146,-171 807.4146,-171"/>
<polygon fill="#000000" stroke="#000000" points="807.4146,-167.5001 797.4146,-171 807.4146,-174.5001 807.4146,-167.5001"/>
</g>
<!-- TemplatesModule -->
<g id="node27" class="node">
<title>TemplatesModule</title>
<polygon fill="#8dd3c7" stroke="#000000" points="1928.8627,-266 1925.8627,-270 1904.8627,-270 1901.8627,-266 1811.1373,-266 1811.1373,-230 1928.8627,-230 1928.8627,-266"/>
<text text-anchor="middle" x="1870" y="-243.8" font-family="Times,serif" font-size="14.00" fill="#000000">TemplatesModule</text>
</g>
<!-- TemplatesModule&#45;&gt;SharedModule -->
<g id="edge25" class="edge">
<title>TemplatesModule&#45;&gt;SharedModule</title>
<path fill="none" stroke="#000000" d="M1870,-229.7772C1870,-209.6348 1870,-180 1870,-180 1870,-180 807.2949,-180 807.2949,-180"/>
<polygon fill="#000000" stroke="#000000" points="807.295,-176.5001 797.2949,-180 807.2949,-183.5001 807.295,-176.5001"/>
</g>
<!-- TemplateAComponent  -->
<g id="node35" class="node">
<title>TemplateAComponent </title>
<polygon fill="#fb8072" stroke="#000000" points="1858.8073,-342 1711.1927,-342 1711.1927,-306 1858.8073,-306 1858.8073,-342"/>
<text text-anchor="middle" x="1785" y="-319.8" font-family="Times,serif" font-size="14.00" fill="#000000">TemplateAComponent </text>
</g>
<!-- TemplatesModule&#45;&gt;TemplateAComponent  -->
<g id="edge33" class="edge">
<title>TemplatesModule&#45;&gt;TemplateAComponent </title>
<path fill="none" stroke="#000000" stroke-dasharray="5,2" d="M1842.9586,-266.0109C1842.9586,-266.0109 1842.9586,-295.855 1842.9586,-295.855"/>
<polygon fill="#000000" stroke="#000000" points="1839.4587,-295.8549 1842.9586,-305.855 1846.4587,-295.855 1839.4587,-295.8549"/>
</g>
<!-- TemplateBComponent  -->
<g id="node36" class="node">
<title>TemplateBComponent </title>
<polygon fill="#fb8072" stroke="#000000" points="1693.5372,-342 1546.4628,-342 1546.4628,-306 1693.5372,-306 1693.5372,-342"/>
<text text-anchor="middle" x="1620" y="-319.8" font-family="Times,serif" font-size="14.00" fill="#000000">TemplateBComponent </text>
</g>
<!-- TemplatesModule&#45;&gt;TemplateBComponent  -->
<g id="edge34" class="edge">
<title>TemplatesModule&#45;&gt;TemplateBComponent </title>
<path fill="none" stroke="#000000" stroke-dasharray="5,2" d="M1827.0137,-266.2434C1827.0137,-273.4297 1827.0137,-280 1827.0137,-280 1827.0137,-280 1678.0859,-280 1678.0859,-280 1678.0859,-280 1678.0859,-295.8495 1678.0859,-295.8495"/>
<polygon fill="#000000" stroke="#000000" points="1674.586,-295.8494 1678.0859,-305.8495 1681.586,-295.8495 1674.586,-295.8494"/>
</g>
<!-- TemplateAComponent -->
<g id="node33" class="node">
<title>TemplateAComponent</title>
<polygon fill="#ffffb3" stroke="#000000" points="2189.3075,-342 2044.6925,-342 2044.6925,-306 2189.3075,-306 2189.3075,-342"/>
<text text-anchor="middle" x="2117" y="-319.8" font-family="Times,serif" font-size="14.00" fill="#000000">TemplateAComponent</text>
</g>
<!-- TemplateAComponent&#45;&gt;TemplatesModule -->
<g id="edge31" class="edge">
<title>TemplateAComponent&#45;&gt;TemplatesModule</title>
<path fill="none" stroke="#000000" d="M2062.0281,-305.9672C2062.0281,-299.1474 2062.0281,-293 2062.0281,-293 2062.0281,-293 1913.698,-293 1913.698,-293 1913.698,-293 1913.698,-276.0439 1913.698,-276.0439"/>
<polygon fill="#000000" stroke="#000000" points="1917.1981,-276.0439 1913.698,-266.0439 1910.1981,-276.044 1917.1981,-276.0439"/>
</g>
<!-- TemplateBComponent -->
<g id="node34" class="node">
<title>TemplateBComponent</title>
<polygon fill="#ffffb3" stroke="#000000" points="2026.5379,-342 1883.4621,-342 1883.4621,-306 2026.5379,-306 2026.5379,-342"/>
<text text-anchor="middle" x="1955" y="-319.8" font-family="Times,serif" font-size="14.00" fill="#000000">TemplateBComponent</text>
</g>
<!-- TemplateBComponent&#45;&gt;TemplatesModule -->
<g id="edge32" class="edge">
<title>TemplateBComponent&#45;&gt;TemplatesModule</title>
<path fill="none" stroke="#000000" d="M1898.4647,-305.9891C1898.4647,-305.9891 1898.4647,-276.145 1898.4647,-276.145"/>
<polygon fill="#000000" stroke="#000000" points="1901.9648,-276.145 1898.4647,-266.145 1894.9648,-276.1451 1901.9648,-276.145"/>
</g>
<!-- FooterComponent -->
<g id="node37" class="node">
<title>FooterComponent</title>
<polygon fill="#ffffb3" stroke="#000000" points="431.8809,-122 314.1191,-122 314.1191,-86 431.8809,-86 431.8809,-122"/>
<text text-anchor="middle" x="373" y="-99.8" font-family="Times,serif" font-size="14.00" fill="#000000">FooterComponent</text>
</g>
<!-- FooterComponent&#45;&gt;UiTotoModule -->
<g id="edge35" class="edge">
<title>FooterComponent&#45;&gt;UiTotoModule</title>
<path fill="none" stroke="#000000" d="M373,-122.0109C373,-122.0109 373,-151.855 373,-151.855"/>
<polygon fill="#000000" stroke="#000000" points="369.5001,-151.8549 373,-161.855 376.5001,-151.855 369.5001,-151.8549"/>
</g>
<!-- HeaderComponent -->
<g id="node38" class="node">
<title>HeaderComponent</title>
<polygon fill="#ffffb3" stroke="#000000" points="295.7437,-122 174.2563,-122 174.2563,-86 295.7437,-86 295.7437,-122"/>
<text text-anchor="middle" x="235" y="-99.8" font-family="Times,serif" font-size="14.00" fill="#000000">HeaderComponent</text>
</g>
<!-- HeaderComponent&#45;&gt;UiTotoModule -->
<g id="edge36" class="edge">
<title>HeaderComponent&#45;&gt;UiTotoModule</title>
<path fill="none" stroke="#000000" d="M295.8558,-104C302.2022,-104 306.3896,-104 306.3896,-104 306.3896,-104 306.3896,-180 306.3896,-180 306.3896,-180 312.8551,-180 312.8551,-180"/>
<polygon fill="#000000" stroke="#000000" points="312.8551,-183.5001 322.8551,-180 312.855,-176.5001 312.8551,-183.5001"/>
</g>
<!-- NavComponent -->
<g id="node39" class="node">
<title>NavComponent</title>
<polygon fill="#ffffb3" stroke="#000000" points="694.1542,-122 589.8458,-122 589.8458,-86 694.1542,-86 694.1542,-122"/>
<text text-anchor="middle" x="642" y="-99.8" font-family="Times,serif" font-size="14.00" fill="#000000">NavComponent</text>
</g>
<!-- NavComponent&#45;&gt;UiTotoModule -->
<g id="edge37" class="edge">
<title>NavComponent&#45;&gt;UiTotoModule</title>
<path fill="none" stroke="#000000" d="M635.0849,-122.0439C635.0849,-134.5633 635.0849,-149 635.0849,-149 635.0849,-149 397.9976,-149 397.9976,-149 397.9976,-149 397.9976,-151.9672 397.9976,-151.9672"/>
<polygon fill="#000000" stroke="#000000" points="394.4976,-151.9671 397.9976,-161.9672 401.4976,-151.9672 394.4976,-151.9671"/>
</g>
<!-- UiTotoComponent -->
<g id="node40" class="node">
<title>UiTotoComponent</title>
<polygon fill="#ffffb3" stroke="#000000" points="571.773,-122 450.227,-122 450.227,-86 571.773,-86 571.773,-122"/>
<text text-anchor="middle" x="511" y="-99.8" font-family="Times,serif" font-size="14.00" fill="#000000">UiTotoComponent</text>
</g>
<!-- UiTotoComponent&#45;&gt;UiTotoModule -->
<g id="edge38" class="edge">
<title>UiTotoComponent&#45;&gt;UiTotoModule</title>
<path fill="none" stroke="#000000" d="M449.9821,-104C441.8636,-104 436.2767,-104 436.2767,-104 436.2767,-104 436.2767,-180 436.2767,-180 436.2767,-180 433.1657,-180 433.1657,-180"/>
<polygon fill="#000000" stroke="#000000" points="433.1657,-176.5001 423.1657,-180 433.1657,-183.5001 433.1657,-176.5001"/>
</g>
</g>
</svg>
