<?xml version="1.0" encoding="UTF-8" standalone="no"?>
<!DOCTYPE svg PUBLIC "-//W3C//DTD SVG 1.1//EN"
 "http://www.w3.org/Graphics/SVG/1.1/DTD/svg11.dtd">
<!-- Generated by graphviz version 2.40.1 (20161225.0304)
 -->
<!-- Title: dependencies Pages: 1 -->
<svg width="576pt" height="284pt"
 viewBox="0.00 0.00 576.00 284.00" xmlns="http://www.w3.org/2000/svg" xmlns:xlink="http://www.w3.org/1999/xlink">
<g id="graph0" class="graph" transform="scale(1 1) rotate(0) translate(4 280)">
<title>dependencies</title>
<polygon fill="#ffffff" stroke="transparent" points="-4,4 -4,-280 572,-280 572,4 -4,4"/>
<text text-anchor="start" x="263.0091" y="-42.4" font-family="sans-serif" font-weight="bold" font-size="14.00" fill="#000000">Legend</text>
<polygon fill="#ffffb3" stroke="transparent" points="50,-10 50,-30 70,-30 70,-10 50,-10"/>
<text text-anchor="start" x="73.629" y="-15.4" font-family="sans-serif" font-size="14.00" fill="#000000"> &#160;Declarations</text>
<polygon fill="#8dd3c7" stroke="transparent" points="163,-10 163,-30 183,-30 183,-10 163,-10"/>
<text text-anchor="start" x="186.7251" y="-15.4" font-family="sans-serif" font-size="14.00" fill="#000000"> &#160;Module</text>
<polygon fill="#80b1d3" stroke="transparent" points="249,-10 249,-30 269,-30 269,-10 249,-10"/>
<text text-anchor="start" x="272.7812" y="-15.4" font-family="sans-serif" font-size="14.00" fill="#000000"> &#160;Bootstrap</text>
<polygon fill="#fdb462" stroke="transparent" points="346,-10 346,-30 366,-30 366,-10 346,-10"/>
<text text-anchor="start" x="369.6732" y="-15.4" font-family="sans-serif" font-size="14.00" fill="#000000"> &#160;Providers</text>
<polygon fill="#fb8072" stroke="transparent" points="442,-10 442,-30 462,-30 462,-10 442,-10"/>
<text text-anchor="start" x="465.7258" y="-15.4" font-family="sans-serif" font-size="14.00" fill="#000000"> &#160;Exports</text>
<g id="clust1" class="cluster">
<title>cluster_UiTotoModule</title>
<polygon fill="none" stroke="#000000" stroke-dasharray="1,5" points="8,-70 8,-268 560,-268 560,-70 8,-70"/>
</g>
<g id="clust2" class="cluster">
<title>cluster_UiTotoModule_declarations</title>
<polygon fill="none" stroke="#000000" points="16,-78 16,-130 552,-130 552,-78 16,-78"/>
</g>
<g id="clust8" class="cluster">
<title>cluster_UiTotoModule_exports</title>
<polygon fill="none" stroke="#000000" points="210,-208 210,-260 352,-260 352,-208 210,-208"/>
</g>
<!-- FooterComponent -->
<g id="node1" class="node">
<title>FooterComponent</title>
<polygon fill="#ffffb3" stroke="#000000" points="543.8809,-122 426.1191,-122 426.1191,-86 543.8809,-86 543.8809,-122"/>
<text text-anchor="middle" x="485" y="-99.8" font-family="Times,serif" font-size="14.00" fill="#000000">FooterComponent</text>
</g>
<!-- UiTotoModule -->
<g id="node5" class="node">
<title>UiTotoModule</title>
<polygon fill="#8dd3c7" stroke="#000000" points="330.9902,-187 327.9902,-191 306.9902,-191 303.9902,-187 231.0098,-187 231.0098,-151 330.9902,-151 330.9902,-187"/>
<text text-anchor="middle" x="281" y="-164.8" font-family="Times,serif" font-size="14.00" fill="#000000">UiTotoModule</text>
</g>
<!-- FooterComponent&#45;&gt;UiTotoModule -->
<g id="edge1" class="edge">
<title>FooterComponent&#45;&gt;UiTotoModule</title>
<path fill="none" stroke="#000000" d="M485,-122.1061C485,-141.3391 485,-169 485,-169 485,-169 341.1653,-169 341.1653,-169"/>
<polygon fill="#000000" stroke="#000000" points="341.1653,-165.5001 331.1653,-169 341.1653,-172.5001 341.1653,-165.5001"/>
</g>
<!-- HeaderComponent -->
<g id="node2" class="node">
<title>HeaderComponent</title>
<polygon fill="#ffffb3" stroke="#000000" points="407.7437,-122 286.2563,-122 286.2563,-86 407.7437,-86 407.7437,-122"/>
<text text-anchor="middle" x="347" y="-99.8" font-family="Times,serif" font-size="14.00" fill="#000000">HeaderComponent</text>
</g>
<!-- HeaderComponent&#45;&gt;UiTotoModule -->
<g id="edge2" class="edge">
<title>HeaderComponent&#45;&gt;UiTotoModule</title>
<path fill="none" stroke="#000000" d="M308.5617,-122.1061C308.5617,-122.1061 308.5617,-140.991 308.5617,-140.991"/>
<polygon fill="#000000" stroke="#000000" points="305.0618,-140.9909 308.5617,-150.991 312.0618,-140.991 305.0618,-140.9909"/>
</g>
<!-- NavComponent -->
<g id="node3" class="node">
<title>NavComponent</title>
<polygon fill="#ffffb3" stroke="#000000" points="268.1542,-122 163.8458,-122 163.8458,-86 268.1542,-86 268.1542,-122"/>
<text text-anchor="middle" x="216" y="-99.8" font-family="Times,serif" font-size="14.00" fill="#000000">NavComponent</text>
</g>
<!-- NavComponent&#45;&gt;UiTotoModule -->
<g id="edge3" class="edge">
<title>NavComponent&#45;&gt;UiTotoModule</title>
<path fill="none" stroke="#000000" d="M249.6659,-122.1061C249.6659,-122.1061 249.6659,-140.991 249.6659,-140.991"/>
<polygon fill="#000000" stroke="#000000" points="246.1659,-140.9909 249.6659,-150.991 253.1659,-140.991 246.1659,-140.9909"/>
</g>
<!-- UiTotoComponent -->
<g id="node4" class="node">
<title>UiTotoComponent</title>
<polygon fill="#ffffb3" stroke="#000000" points="145.773,-122 24.227,-122 24.227,-86 145.773,-86 145.773,-122"/>
<text text-anchor="middle" x="85" y="-99.8" font-family="Times,serif" font-size="14.00" fill="#000000">UiTotoComponent</text>
</g>
<!-- UiTotoComponent&#45;&gt;UiTotoModule -->
<g id="edge4" class="edge">
<title>UiTotoComponent&#45;&gt;UiTotoModule</title>
<path fill="none" stroke="#000000" d="M85,-122.1061C85,-141.3391 85,-169 85,-169 85,-169 220.7796,-169 220.7796,-169"/>
<polygon fill="#000000" stroke="#000000" points="220.7797,-172.5001 230.7796,-169 220.7796,-165.5001 220.7797,-172.5001"/>
</g>
<!-- UiTotoComponent  -->
<g id="node6" class="node">
<title>UiTotoComponent </title>
<polygon fill="#fb8072" stroke="#000000" points="343.7731,-252 218.2269,-252 218.2269,-216 343.7731,-216 343.7731,-252"/>
<text text-anchor="middle" x="281" y="-229.8" font-family="Times,serif" font-size="14.00" fill="#000000">UiTotoComponent </text>
</g>
<!-- UiTotoModule&#45;&gt;UiTotoComponent  -->
<g id="edge5" class="edge">
<title>UiTotoModule&#45;&gt;UiTotoComponent </title>
<path fill="none" stroke="#000000" stroke-dasharray="5,2" d="M281,-187.1061C281,-187.1061 281,-205.991 281,-205.991"/>
<polygon fill="#000000" stroke="#000000" points="277.5001,-205.9909 281,-215.991 284.5001,-205.991 277.5001,-205.9909"/>
</g>
</g>
</svg>
