<?xml version="1.0" encoding="UTF-8" standalone="no"?>
<!DOCTYPE svg PUBLIC "-//W3C//DTD SVG 1.1//EN"
 "http://www.w3.org/Graphics/SVG/1.1/DTD/svg11.dtd">
<!-- Generated by graphviz version 2.40.1 (20161225.0304)
 -->
<!-- Title: dependencies Pages: 1 -->
<svg width="660pt" height="284pt"
 viewBox="0.00 0.00 660.00 284.00" xmlns="http://www.w3.org/2000/svg" xmlns:xlink="http://www.w3.org/1999/xlink">
<g id="graph0" class="graph" transform="scale(1 1) rotate(0) translate(4 280)">
<title>dependencies</title>
<polygon fill="#ffffff" stroke="transparent" points="-4,4 -4,-280 656,-280 656,4 -4,4"/>
<text text-anchor="start" x="305.0091" y="-42.4" font-family="sans-serif" font-weight="bold" font-size="14.00" fill="#000000">Legend</text>
<polygon fill="#ffffb3" stroke="transparent" points="92,-10 92,-30 112,-30 112,-10 92,-10"/>
<text text-anchor="start" x="115.629" y="-15.4" font-family="sans-serif" font-size="14.00" fill="#000000"> &#160;Declarations</text>
<polygon fill="#8dd3c7" stroke="transparent" points="205,-10 205,-30 225,-30 225,-10 205,-10"/>
<text text-anchor="start" x="228.7251" y="-15.4" font-family="sans-serif" font-size="14.00" fill="#000000"> &#160;Module</text>
<polygon fill="#80b1d3" stroke="transparent" points="291,-10 291,-30 311,-30 311,-10 291,-10"/>
<text text-anchor="start" x="314.7812" y="-15.4" font-family="sans-serif" font-size="14.00" fill="#000000"> &#160;Bootstrap</text>
<polygon fill="#fdb462" stroke="transparent" points="388,-10 388,-30 408,-30 408,-10 388,-10"/>
<text text-anchor="start" x="411.6732" y="-15.4" font-family="sans-serif" font-size="14.00" fill="#000000"> &#160;Providers</text>
<polygon fill="#fb8072" stroke="transparent" points="484,-10 484,-30 504,-30 504,-10 484,-10"/>
<text text-anchor="start" x="507.7258" y="-15.4" font-family="sans-serif" font-size="14.00" fill="#000000"> &#160;Exports</text>
<g id="clust1" class="cluster">
<title>cluster_AppModule</title>
<polygon fill="none" stroke="#000000" stroke-dasharray="1,5" points="8,-70 8,-268 644,-268 644,-70 8,-70"/>
</g>
<g id="clust2" class="cluster">
<title>cluster_AppModule_declarations</title>
<polygon fill="none" stroke="#000000" points="514,-78 514,-130 636,-130 636,-78 514,-78"/>
</g>
<g id="clust4" class="cluster">
<title>cluster_AppModule_imports</title>
<polygon fill="none" stroke="#000000" points="16,-78 16,-130 506,-130 506,-78 16,-78"/>
</g>
<g id="clust6" class="cluster">
<title>cluster_AppModule_bootstrap</title>
<polygon fill="none" stroke="#000000" points="243,-208 243,-260 367,-260 367,-208 243,-208"/>
</g>
<!-- AppComponent -->
<g id="node1" class="node">
<title>AppComponent</title>
<polygon fill="#ffffb3" stroke="#000000" points="627.9399,-122 522.0601,-122 522.0601,-86 627.9399,-86 627.9399,-122"/>
<text text-anchor="middle" x="575" y="-99.8" font-family="Times,serif" font-size="14.00" fill="#000000">AppComponent</text>
</g>
<!-- AppModule -->
<g id="node2" class="node">
<title>AppModule</title>
<polygon fill="#8dd3c7" stroke="#000000" points="346.6571,-187 343.6571,-191 322.6571,-191 319.6571,-187 263.3429,-187 263.3429,-151 346.6571,-151 346.6571,-187"/>
<text text-anchor="middle" x="305" y="-164.8" font-family="Times,serif" font-size="14.00" fill="#000000">AppModule</text>
</g>
<!-- AppComponent&#45;&gt;AppModule -->
<g id="edge1" class="edge">
<title>AppComponent&#45;&gt;AppModule</title>
<path fill="none" stroke="#000000" d="M575,-122.2843C575,-143.3211 575,-175 575,-175 575,-175 356.8913,-175 356.8913,-175"/>
<polygon fill="#000000" stroke="#000000" points="356.8913,-171.5001 346.8913,-175 356.8912,-178.5001 356.8913,-171.5001"/>
</g>
<!-- AppComponent  -->
<g id="node7" class="node">
<title>AppComponent </title>
<polygon fill="#80b1d3" stroke="#000000" points="359.439,-252 250.561,-252 250.561,-216 359.439,-216 359.439,-252"/>
<text text-anchor="middle" x="305" y="-229.8" font-family="Times,serif" font-size="14.00" fill="#000000">AppComponent </text>
</g>
<!-- AppModule&#45;&gt;AppComponent  -->
<g id="edge6" class="edge">
<title>AppModule&#45;&gt;AppComponent </title>
<path fill="none" stroke="#000000" stroke-dasharray="1,5" d="M305,-187.1061C305,-187.1061 305,-205.991 305,-205.991"/>
<polygon fill="#000000" stroke="#000000" points="301.5001,-205.9909 305,-215.991 308.5001,-205.991 301.5001,-205.9909"/>
</g>
<!-- AppRoutingModule -->
<g id="node3" class="node">
<title>AppRoutingModule</title>
<polygon fill="#8dd3c7" stroke="#000000" points="498.2744,-122 495.2744,-126 474.2744,-126 471.2744,-122 369.7256,-122 369.7256,-86 498.2744,-86 498.2744,-122"/>
<text text-anchor="middle" x="434" y="-99.8" font-family="Times,serif" font-size="14.00" fill="#000000">AppRoutingModule</text>
</g>
<!-- AppRoutingModule&#45;&gt;AppModule -->
<g id="edge2" class="edge">
<title>AppRoutingModule&#45;&gt;AppModule</title>
<path fill="none" stroke="#000000" d="M434,-122.0225C434,-139.3734 434,-163 434,-163 434,-163 356.8826,-163 356.8826,-163"/>
<polygon fill="#000000" stroke="#000000" points="356.8826,-159.5001 346.8826,-163 356.8826,-166.5001 356.8826,-159.5001"/>
</g>
<!-- LoginModule -->
<g id="node4" class="node">
<title>LoginModule</title>
<polygon fill="#8dd3c7" stroke="#000000" points="351.493,-122 348.493,-126 327.493,-126 324.493,-122 258.507,-122 258.507,-86 351.493,-86 351.493,-122"/>
<text text-anchor="middle" x="305" y="-99.8" font-family="Times,serif" font-size="14.00" fill="#000000">LoginModule</text>
</g>
<!-- LoginModule&#45;&gt;AppModule -->
<g id="edge3" class="edge">
<title>LoginModule&#45;&gt;AppModule</title>
<path fill="none" stroke="#000000" d="M305,-122.1061C305,-122.1061 305,-140.991 305,-140.991"/>
<polygon fill="#000000" stroke="#000000" points="301.5001,-140.9909 305,-150.991 308.5001,-140.991 301.5001,-140.9909"/>
</g>
<!-- SharedModule -->
<g id="node5" class="node">
<title>SharedModule</title>
<polygon fill="#8dd3c7" stroke="#000000" points="240.4231,-122 237.4231,-126 216.4231,-126 213.4231,-122 141.5769,-122 141.5769,-86 240.4231,-86 240.4231,-122"/>
<text text-anchor="middle" x="191" y="-99.8" font-family="Times,serif" font-size="14.00" fill="#000000">SharedModule</text>
</g>
<!-- SharedModule&#45;&gt;AppModule -->
<g id="edge4" class="edge">
<title>SharedModule&#45;&gt;AppModule</title>
<path fill="none" stroke="#000000" d="M191,-122.0225C191,-139.3734 191,-163 191,-163 191,-163 253.1979,-163 253.1979,-163"/>
<polygon fill="#000000" stroke="#000000" points="253.198,-166.5001 263.1979,-163 253.1979,-159.5001 253.198,-166.5001"/>
</g>
<!-- UiTotoModule -->
<g id="node6" class="node">
<title>UiTotoModule</title>
<polygon fill="#8dd3c7" stroke="#000000" points="123.9902,-122 120.9902,-126 99.9902,-126 96.9902,-122 24.0098,-122 24.0098,-86 123.9902,-86 123.9902,-122"/>
<text text-anchor="middle" x="74" y="-99.8" font-family="Times,serif" font-size="14.00" fill="#000000">UiTotoModule</text>
</g>
<!-- UiTotoModule&#45;&gt;AppModule -->
<g id="edge5" class="edge">
<title>UiTotoModule&#45;&gt;AppModule</title>
<path fill="none" stroke="#000000" d="M74,-122.2843C74,-143.3211 74,-175 74,-175 74,-175 253.1676,-175 253.1676,-175"/>
<polygon fill="#000000" stroke="#000000" points="253.1677,-178.5001 263.1676,-175 253.1676,-171.5001 253.1677,-178.5001"/>
</g>
</g>
</svg>
