<?xml version="1.0" encoding="UTF-8" standalone="no"?>
<!DOCTYPE svg PUBLIC "-//W3C//DTD SVG 1.1//EN"
 "http://www.w3.org/Graphics/SVG/1.1/DTD/svg11.dtd">
<!-- Generated by graphviz version 2.40.1 (20161225.0304)
 -->
<!-- Title: dependencies Pages: 1 -->
<svg width="654pt" height="284pt"
 viewBox="0.00 0.00 654.00 284.00" xmlns="http://www.w3.org/2000/svg" xmlns:xlink="http://www.w3.org/1999/xlink">
<g id="graph0" class="graph" transform="scale(1 1) rotate(0) translate(4 280)">
<title>dependencies</title>
<polygon fill="#ffffff" stroke="transparent" points="-4,4 -4,-280 650,-280 650,4 -4,4"/>
<text text-anchor="start" x="302.0091" y="-42.4" font-family="sans-serif" font-weight="bold" font-size="14.00" fill="#000000">Legend</text>
<polygon fill="#ffffb3" stroke="transparent" points="89,-10 89,-30 109,-30 109,-10 89,-10"/>
<text text-anchor="start" x="112.629" y="-15.4" font-family="sans-serif" font-size="14.00" fill="#000000"> &#160;Declarations</text>
<polygon fill="#8dd3c7" stroke="transparent" points="202,-10 202,-30 222,-30 222,-10 202,-10"/>
<text text-anchor="start" x="225.7251" y="-15.4" font-family="sans-serif" font-size="14.00" fill="#000000"> &#160;Module</text>
<polygon fill="#80b1d3" stroke="transparent" points="288,-10 288,-30 308,-30 308,-10 288,-10"/>
<text text-anchor="start" x="311.7812" y="-15.4" font-family="sans-serif" font-size="14.00" fill="#000000"> &#160;Bootstrap</text>
<polygon fill="#fdb462" stroke="transparent" points="385,-10 385,-30 405,-30 405,-10 385,-10"/>
<text text-anchor="start" x="408.6732" y="-15.4" font-family="sans-serif" font-size="14.00" fill="#000000"> &#160;Providers</text>
<polygon fill="#fb8072" stroke="transparent" points="481,-10 481,-30 501,-30 501,-10 481,-10"/>
<text text-anchor="start" x="504.7258" y="-15.4" font-family="sans-serif" font-size="14.00" fill="#000000"> &#160;Exports</text>
<g id="clust1" class="cluster">
<title>cluster_SharedModule</title>
<polygon fill="none" stroke="#000000" stroke-dasharray="1,5" points="8,-70 8,-268 638,-268 638,-70 8,-70"/>
</g>
<g id="clust2" class="cluster">
<title>cluster_SharedModule_declarations</title>
<polygon fill="none" stroke="#000000" points="158,-78 158,-130 617,-130 617,-78 158,-78"/>
</g>
<g id="clust7" class="cluster">
<title>cluster_SharedModule_imports</title>
<polygon fill="none" stroke="#000000" points="16,-78 16,-130 150,-130 150,-78 16,-78"/>
</g>
<g id="clust8" class="cluster">
<title>cluster_SharedModule_exports</title>
<polygon fill="none" stroke="#000000" points="16,-208 16,-260 630,-260 630,-208 16,-208"/>
</g>
<!-- StateDirective -->
<g id="node1" class="node">
<title>StateDirective</title>
<polygon fill="#ffffb3" stroke="#000000" points="609.0758,-122 512.9242,-122 512.9242,-86 609.0758,-86 609.0758,-122"/>
<text text-anchor="middle" x="561" y="-99.8" font-family="Times,serif" font-size="14.00" fill="#000000">StateDirective</text>
</g>
<!-- SharedModule -->
<g id="node5" class="node">
<title>SharedModule</title>
<polygon fill="#8dd3c7" stroke="#000000" points="354.4231,-187 351.4231,-191 330.4231,-191 327.4231,-187 255.5769,-187 255.5769,-151 354.4231,-151 354.4231,-187"/>
<text text-anchor="middle" x="305" y="-164.8" font-family="Times,serif" font-size="14.00" fill="#000000">SharedModule</text>
</g>
<!-- StateDirective&#45;&gt;SharedModule -->
<g id="edge1" class="edge">
<title>StateDirective&#45;&gt;SharedModule</title>
<path fill="none" stroke="#000000" d="M517.5871,-122.2667C517.5871,-140.5552 517.5871,-166 517.5871,-166 517.5871,-166 364.3061,-166 364.3061,-166"/>
<polygon fill="#000000" stroke="#000000" points="364.3061,-162.5001 354.3061,-166 364.3061,-169.5001 364.3061,-162.5001"/>
</g>
<!-- TableauComponent -->
<g id="node2" class="node">
<title>TableauComponent</title>
<polygon fill="#ffffb3" stroke="#000000" points="495.4201,-122 368.5799,-122 368.5799,-86 495.4201,-86 495.4201,-122"/>
<text text-anchor="middle" x="432" y="-99.8" font-family="Times,serif" font-size="14.00" fill="#000000">TableauComponent</text>
</g>
<!-- TableauComponent&#45;&gt;SharedModule -->
<g id="edge2" class="edge">
<title>TableauComponent&#45;&gt;SharedModule</title>
<path fill="none" stroke="#000000" d="M454.8199,-122.0091C454.8199,-138.0494 454.8199,-159 454.8199,-159 454.8199,-159 364.4719,-159 364.4719,-159"/>
<polygon fill="#000000" stroke="#000000" points="364.4719,-155.5001 354.4719,-159 364.4718,-162.5001 364.4719,-155.5001"/>
</g>
<!-- TotalPipe -->
<g id="node3" class="node">
<title>TotalPipe</title>
<polygon fill="#ffffb3" stroke="#000000" points="351.4376,-122 280.5624,-122 280.5624,-86 351.4376,-86 351.4376,-122"/>
<text text-anchor="middle" x="316" y="-99.8" font-family="Times,serif" font-size="14.00" fill="#000000">TotalPipe</text>
</g>
<!-- TotalPipe&#45;&gt;SharedModule -->
<g id="edge3" class="edge">
<title>TotalPipe&#45;&gt;SharedModule</title>
<path fill="none" stroke="#000000" d="M316,-122.1061C316,-122.1061 316,-140.991 316,-140.991"/>
<polygon fill="#000000" stroke="#000000" points="312.5001,-140.9909 316,-150.991 319.5001,-140.991 312.5001,-140.9909"/>
</g>
<!-- TypeDirective -->
<g id="node4" class="node">
<title>TypeDirective</title>
<polygon fill="#ffffb3" stroke="#000000" points="262.3501,-122 165.6499,-122 165.6499,-86 262.3501,-86 262.3501,-122"/>
<text text-anchor="middle" x="214" y="-99.8" font-family="Times,serif" font-size="14.00" fill="#000000">TypeDirective</text>
</g>
<!-- TypeDirective&#45;&gt;SharedModule -->
<g id="edge4" class="edge">
<title>TypeDirective&#45;&gt;SharedModule</title>
<path fill="none" stroke="#000000" d="M262.6029,-104C268.0032,-104 271.6035,-104 271.6035,-104 271.6035,-104 271.6035,-140.8939 271.6035,-140.8939"/>
<polygon fill="#000000" stroke="#000000" points="268.1035,-140.8938 271.6035,-150.8939 275.1035,-140.8939 268.1035,-140.8938"/>
</g>
<!-- StateDirective  -->
<g id="node7" class="node">
<title>StateDirective </title>
<polygon fill="#fb8072" stroke="#000000" points="621.5767,-252 522.4233,-252 522.4233,-216 621.5767,-216 621.5767,-252"/>
<text text-anchor="middle" x="572" y="-229.8" font-family="Times,serif" font-size="14.00" fill="#000000">StateDirective </text>
</g>
<!-- SharedModule&#45;&gt;StateDirective  -->
<g id="edge6" class="edge">
<title>SharedModule&#45;&gt;StateDirective </title>
<path fill="none" stroke="#000000" stroke-dasharray="5,2" d="M354.328,-173C429.8859,-173 565.625,-173 565.625,-173 565.625,-173 565.625,-205.698 565.625,-205.698"/>
<polygon fill="#000000" stroke="#000000" points="562.1251,-205.698 565.625,-215.698 569.1251,-205.698 562.1251,-205.698"/>
</g>
<!-- TableauComponent  -->
<g id="node8" class="node">
<title>TableauComponent </title>
<polygon fill="#fb8072" stroke="#000000" points="503.9194,-252 374.0806,-252 374.0806,-216 503.9194,-216 503.9194,-252"/>
<text text-anchor="middle" x="439" y="-229.8" font-family="Times,serif" font-size="14.00" fill="#000000">TableauComponent </text>
</g>
<!-- SharedModule&#45;&gt;TableauComponent  -->
<g id="edge7" class="edge">
<title>SharedModule&#45;&gt;TableauComponent </title>
<path fill="none" stroke="#000000" stroke-dasharray="5,2" d="M354.2729,-180C383.3185,-180 414.4301,-180 414.4301,-180 414.4301,-180 414.4301,-205.7181 414.4301,-205.7181"/>
<polygon fill="#000000" stroke="#000000" points="410.9302,-205.718 414.4301,-215.7181 417.9302,-205.7181 410.9302,-205.718"/>
</g>
<!-- TemplatesModule  -->
<g id="node9" class="node">
<title>TemplatesModule </title>
<polygon fill="#fb8072" stroke="#000000" points="355.8631,-252 234.1369,-252 234.1369,-216 355.8631,-216 355.8631,-252"/>
<text text-anchor="middle" x="295" y="-229.8" font-family="Times,serif" font-size="14.00" fill="#000000">TemplatesModule </text>
</g>
<!-- SharedModule&#45;&gt;TemplatesModule  -->
<g id="edge8" class="edge">
<title>SharedModule&#45;&gt;TemplatesModule </title>
<path fill="none" stroke="#000000" stroke-dasharray="5,2" d="M305,-187.1061C305,-187.1061 305,-205.991 305,-205.991"/>
<polygon fill="#000000" stroke="#000000" points="301.5001,-205.9909 305,-215.991 308.5001,-205.991 301.5001,-205.9909"/>
</g>
<!-- TotalPipe  -->
<g id="node10" class="node">
<title>TotalPipe </title>
<polygon fill="#fb8072" stroke="#000000" points="215.9362,-252 142.0638,-252 142.0638,-216 215.9362,-216 215.9362,-252"/>
<text text-anchor="middle" x="179" y="-229.8" font-family="Times,serif" font-size="14.00" fill="#000000">TotalPipe </text>
</g>
<!-- SharedModule&#45;&gt;TotalPipe  -->
<g id="edge9" class="edge">
<title>SharedModule&#45;&gt;TotalPipe </title>
<path fill="none" stroke="#000000" stroke-dasharray="5,2" d="M255.5621,-178C224.6905,-178 190.7716,-178 190.7716,-178 190.7716,-178 190.7716,-205.973 190.7716,-205.973"/>
<polygon fill="#000000" stroke="#000000" points="187.2716,-205.973 190.7716,-215.973 194.2716,-205.973 187.2716,-205.973"/>
</g>
<!-- TypeDirective  -->
<g id="node11" class="node">
<title>TypeDirective </title>
<polygon fill="#fb8072" stroke="#000000" points="124.3506,-252 23.6494,-252 23.6494,-216 124.3506,-216 124.3506,-252"/>
<text text-anchor="middle" x="74" y="-229.8" font-family="Times,serif" font-size="14.00" fill="#000000">TypeDirective </text>
</g>
<!-- SharedModule&#45;&gt;TypeDirective  -->
<g id="edge10" class="edge">
<title>SharedModule&#45;&gt;TypeDirective </title>
<path fill="none" stroke="#000000" stroke-dasharray="5,2" d="M255.754,-169C187.9476,-169 74.1219,-169 74.1219,-169 74.1219,-169 74.1219,-205.8939 74.1219,-205.8939"/>
<polygon fill="#000000" stroke="#000000" points="70.6219,-205.8938 74.1219,-215.8939 77.6219,-205.8939 70.6219,-205.8938"/>
</g>
<!-- TemplatesModule -->
<g id="node6" class="node">
<title>TemplatesModule</title>
<polygon fill="#8dd3c7" stroke="#000000" points="141.8627,-122 138.8627,-126 117.8627,-126 114.8627,-122 24.1373,-122 24.1373,-86 141.8627,-86 141.8627,-122"/>
<text text-anchor="middle" x="83" y="-99.8" font-family="Times,serif" font-size="14.00" fill="#000000">TemplatesModule</text>
</g>
<!-- TemplatesModule&#45;&gt;SharedModule -->
<g id="edge5" class="edge">
<title>TemplatesModule&#45;&gt;SharedModule</title>
<path fill="none" stroke="#000000" d="M133.0531,-122.027C133.0531,-138.3976 133.0531,-160 133.0531,-160 133.0531,-160 245.7269,-160 245.7269,-160"/>
<polygon fill="#000000" stroke="#000000" points="245.727,-163.5001 255.7269,-160 245.7269,-156.5001 245.727,-163.5001"/>
</g>
</g>
</svg>
